<svg xmlns="http://www.w3.org/2000/svg" width="1200" height="720" viewBox="0 0 1200 720" role="img" aria-labelledby="title desc">
  <title id="title">活字工房 1455 preview</title>
  <desc id="desc">A wooden Gutenberg-style press with movable type and printed paper.</desc>
  <defs>
    <linearGradient id="bg" x1="0" x2="1" y1="0" y2="1">
      <stop offset="0" stop-color="#17202b"/>
      <stop offset="0.46" stop-color="#31414d"/>
      <stop offset="1" stop-color="#6b4632"/>
    </linearGradient>
    <linearGradient id="wood" x1="0" x2="1">
      <stop offset="0" stop-color="#392318"/>
      <stop offset="0.5" stop-color="#8a5b3f"/>
      <stop offset="1" stop-color="#2b1a13"/>
    </linearGradient>
    <linearGradient id="paper" x1="0" x2="0" y1="0" y2="1">
      <stop offset="0" stop-color="#fffaf0"/>
      <stop offset="1" stop-color="#ecd8ad"/>
    </linearGradient>
  </defs>
  <rect width="1200" height="720" fill="url(#bg)"/>
  <circle cx="156" cy="108" r="180" fill="#d9a441" opacity="0.24"/>
  <circle cx="990" cy="140" r="150" fill="#167a78" opacity="0.26"/>
  <rect x="90" y="84" width="1020" height="552" rx="28" fill="#fbf3df" opacity="0.94"/>
  <g transform="translate(440 88)">
    <rect x="55" y="110" width="42" height="360" rx="12" fill="url(#wood)"/>
    <rect x="405" y="110" width="42" height="360" rx="12" fill="url(#wood)"/>
    <rect x="24" y="122" width="456" height="52" rx="12" fill="url(#wood)"/>
    <rect x="232" y="14" width="58" height="205" rx="28" fill="#4d3327"/>
    <path d="M235 42h52M232 72h58M235 102h52M232 132h58M235 162h52" stroke="#b58356" stroke-width="8" stroke-linecap="round"/>
    <rect x="142" y="250" width="222" height="52" rx="9" fill="#17130f"/>
    <rect x="104" y="392" width="302" height="84" rx="12" fill="#1b1714"/>
    <g transform="translate(145 408)" font-family="Georgia,serif" font-size="42" font-weight="900" text-anchor="middle">
      <rect x="0" y="0" width="48" height="56" rx="6" fill="#c6b08b"/><text x="24" y="40" fill="#17130f">B</text>
      <rect x="56" y="0" width="48" height="56" rx="6" fill="#c6b08b"/><text x="80" y="40" fill="#17130f">4</text>
      <rect x="112" y="0" width="48" height="56" rx="6" fill="#c6b08b"/><text x="136" y="40" fill="#17130f">2</text>
    </g>
    <rect x="398" y="198" width="178" height="18" rx="9" fill="#7a4f38" transform="rotate(-24 398 198)"/>
  </g>
  <g transform="translate(130 130)">
    <text x="0" y="0" fill="#b6422f" font-family="Arial,sans-serif" font-size="24" font-weight="900" letter-spacing="4">HISTORY GAME</text>
    <text x="0" y="88" fill="#111827" font-family="Hiragino Sans,Yu Gothic,Arial,sans-serif" font-size="72" font-weight="900">活字工房 1455</text>
    <text x="0" y="138" fill="#5f5345" font-family="Hiragino Sans,Yu Gothic,Arial,sans-serif" font-size="30">活字を組み、インクを合わせ、ページを刷る。</text>
    <g transform="translate(0 196)">
      <rect width="310" height="190" rx="18" fill="#17202b"/>
      <text x="155" y="82" fill="#fffaf0" font-family="Georgia,serif" font-size="58" font-weight="900" text-anchor="middle" letter-spacing="10">B42</text>
      <rect x="48" y="116" width="210" height="10" rx="5" fill="#d9a441"/>
      <rect x="48" y="142" width="168" height="10" rx="5" fill="#167a78"/>
    </g>
  </g>
</svg>
